<?xml version="1.0" encoding="iso-8859-1" ?>
<svg width="27" height="25" viewBox="0 0 27 25" fill="none" xmlns="http://www.w3.org/2000/svg">
<path d="M25.5556 3.0119C25.959 3.0119 26.2857 2.67495 26.2857 2.25893V0.752976C26.2857 0.336957 25.959 0 25.5556 0H0.730159C0.326746 0 0 0.336957 0 0.752976V2.25893C0 2.67495 0.326746 3.0119 0.730159 3.0119H1.4594V21.0833H0.730159C0.326746 21.0833 0 21.4203 0 21.8363V23.3423C0 23.7583 0.326746 24.0952 0.730159 24.0952H11.6825V20.3304C11.6825 19.9162 12.0111 19.5774 12.4127 19.5774H13.873C14.2746 19.5774 14.6032 19.9162 14.6032 20.3304V24.0952H25.5556C25.959 24.0952 26.2857 23.7583 26.2857 23.3423V21.8363C26.2857 21.4203 25.959 21.0833 25.5556 21.0833H24.8254V3.0119H25.5556ZM11.6825 5.12024C11.6825 4.81905 11.9746 4.51786 12.2667 4.51786H14.019C14.3111 4.51786 14.6032 4.81905 14.6032 5.12024V6.92738C14.6032 7.22857 14.3111 7.52976 14.019 7.52976H12.2667C11.9746 7.52976 11.6825 7.22857 11.6825 6.92738V5.12024V5.12024ZM11.6825 9.63809C11.6825 9.3369 11.9746 9.03571 12.2667 9.03571H14.019C14.3111 9.03571 14.6032 9.3369 14.6032 9.63809V11.4452C14.6032 11.7464 14.3111 12.0476 14.019 12.0476H12.2667C11.9746 12.0476 11.6825 11.7464 11.6825 11.4452V9.63809V9.63809ZM5.84127 5.12024C5.84127 4.81905 6.13333 4.51786 6.4254 4.51786H8.17778C8.46984 4.51786 8.7619 4.81905 8.7619 5.12024V6.92738C8.7619 7.22857 8.46984 7.52976 8.17778 7.52976H6.4254C6.13333 7.52976 5.84127 7.22857 5.84127 6.92738V5.12024ZM8.17778 12.0476H6.4254C6.13333 12.0476 5.84127 11.7464 5.84127 11.4452V9.63809C5.84127 9.3369 6.13333 9.03571 6.4254 9.03571H8.17778C8.46984 9.03571 8.7619 9.3369 8.7619 9.63809V11.4452C8.7619 11.7464 8.46984 12.0476 8.17778 12.0476ZM8.7619 18.0714C8.7619 15.5763 10.7233 13.5536 13.1429 13.5536C15.5624 13.5536 17.5238 15.5763 17.5238 18.0714H8.7619ZM20.4444 11.4452C20.4444 11.7464 20.1524 12.0476 19.8603 12.0476H18.1079C17.8159 12.0476 17.5238 11.7464 17.5238 11.4452V9.63809C17.5238 9.3369 17.8159 9.03571 18.1079 9.03571H19.8603C20.1524 9.03571 20.4444 9.3369 20.4444 9.63809V11.4452ZM20.4444 6.92738C20.4444 7.22857 20.1524 7.52976 19.8603 7.52976H18.1079C17.8159 7.52976 17.5238 7.22857 17.5238 6.92738V5.12024C17.5238 4.81905 17.8159 4.51786 18.1079 4.51786H19.8603C20.1524 4.51786 20.4444 4.81905 20.4444 5.12024V6.92738Z" fill="#D71C23"/>
</svg>
