<?xml version="1.0" encoding="iso-8859-1" ?>
<svg width="25" height="29" viewBox="0 0 25 29" fill="none" xmlns="http://www.w3.org/2000/svg">
<path d="M11.709 27.2857H2.33862C1.9836 27.2857 1.64311 27.1319 1.39207 26.858C1.14103 26.5841 1 26.2127 1 25.8254V2.46032C1 2.07302 1.14103 1.70158 1.39207 1.42772C1.64311 1.15385 1.9836 1 2.33862 1H21.0794C21.4344 1 21.7749 1.15385 22.0259 1.42772C22.277 1.70158 22.418 2.07302 22.418 2.46032V10.8571" stroke="#D71C23" stroke-width="2" stroke-linecap="round" stroke-linejoin="round"/>
<path d="M20.835 16.3321C22.448 16.3321 23.7559 17.7048 23.7559 19.3988C23.7559 21.6038 21.8082 23.4876 20.835 24.5099C20.1858 25.1911 19.3752 25.8731 18.4014 26.5543C17.4282 25.8731 16.6163 25.1911 15.9678 24.5099C14.9939 23.4876 13.0469 21.6038 13.0469 19.3988C13.0469 17.7048 14.3547 16.3321 15.9678 16.3321C16.9831 16.3321 17.878 16.8768 18.4014 17.7033C18.6751 17.2771 19.0395 16.9296 19.4634 16.6908C19.8873 16.4519 20.3579 16.3289 20.835 16.3321V16.3321Z" stroke="#D71C23" stroke-width="2" stroke-linejoin="round"/>
<path d="M6.35352 6.84375H17.0625" stroke="#D71C23" stroke-width="2" stroke-linecap="round"/>
</svg>
