<?xml version="1.0" encoding="iso-8859-1" ?>
<svg width="27" height="33" viewBox="0 0 27 33" fill="none" xmlns="http://www.w3.org/2000/svg">
<path d="M7.84643 0.194766C7.64994 0.227445 7.46426 0.307143 7.30522 0.427068C3.33877 3.03059 0.703125 7.49995 0.703125 12.5908C0.703125 20.2161 6.59348 26.4833 14.063 27.1098V28.5765C11.5756 28.8619 9.77652 29.89 9.77652 29.89C9.56033 30.0206 9.39242 30.2179 9.29808 30.4522C9.20374 30.6864 9.18808 30.945 9.25346 31.189C9.31885 31.433 9.46173 31.6491 9.66059 31.8048C9.85945 31.9605 10.1035 32.0474 10.356 32.0524H20.2413C20.4938 32.0474 20.7379 31.9605 20.9367 31.8048C21.1356 31.6491 21.2785 31.433 21.3438 31.189C21.4092 30.945 21.3936 30.6864 21.2992 30.4522C21.2049 30.2179 21.037 30.0206 20.8208 29.89C20.8208 29.89 19.0217 28.8619 16.5343 28.5765V27.1481C18.9479 26.9372 21.2707 26.1273 23.2921 24.7917C23.449 24.7139 23.5876 24.6037 23.6987 24.4682C23.8097 24.3328 23.8908 24.1754 23.9364 24.0063C23.982 23.8372 23.9911 23.6603 23.9632 23.4875C23.9352 23.3146 23.8709 23.1496 23.7743 23.0035C23.6778 22.8573 23.5513 22.7334 23.4032 22.6399C23.2552 22.5463 23.0889 22.4854 22.9155 22.461C22.7421 22.4366 22.5654 22.4493 22.3973 22.4983C22.2292 22.5474 22.0734 22.6316 21.9403 22.7454C20.0342 23.9983 17.8104 24.6815 15.5297 24.7151C15.377 24.686 15.2203 24.686 15.0676 24.7151C11.8915 24.6558 8.86566 23.352 6.64116 21.0843C4.41667 18.8166 3.17135 15.7662 3.17319 12.5896C3.17443 8.34637 5.36401 4.6357 8.65702 2.47331C8.89892 2.32533 9.08255 2.09866 9.17712 1.83132C9.27168 1.56399 9.27142 1.27226 9.17638 1.00509C9.08134 0.737929 8.89729 0.511582 8.65514 0.364036C8.41298 0.216491 8.12744 0.156724 7.84643 0.194766V0.194766ZM15.2987 1.46996C13.313 1.46996 11.4607 2.00129 9.85437 2.93668C9.69497 3.00835 9.54175 3.10967 9.391 3.20729C9.19679 3.33045 9.01547 3.47286 8.84978 3.63235C6.1746 5.61928 4.40885 8.78379 4.40885 12.3585C4.40885 14.4752 5.01679 16.4362 6.06957 18.1117C6.10984 18.1961 6.16184 18.2743 6.22402 18.344C8.17882 21.2812 11.5213 23.2483 15.2987 23.2483C17.3952 23.2566 19.4485 22.6523 21.2063 21.5098C21.2632 21.4739 21.3076 21.4332 21.3608 21.3949C24.2584 19.4326 26.1885 16.105 26.1885 12.3585C26.1923 10.3687 25.6439 8.4169 24.6044 6.72025C24.5525 6.55814 24.4598 6.41215 24.335 6.29642C24.3239 6.28159 24.3053 6.27171 24.2954 6.25688C24.2717 6.22999 24.2466 6.20442 24.2201 6.18027C22.2467 3.35557 18.9883 1.46872 15.2987 1.46872V1.46996ZM15.2987 3.4779C16.1092 3.4779 16.9087 3.5854 17.6538 3.78681L16.302 4.67401C15.8572 4.32802 15.4 4.01417 14.9514 3.74727C14.8069 3.66201 14.6722 3.59281 14.5264 3.5162C14.7772 3.49519 15.0416 3.4779 15.2987 3.4779V3.4779ZM11.4755 4.5974C12.1391 4.58504 12.9806 4.83464 13.9469 5.40799C14.131 5.51672 14.3398 5.66377 14.5264 5.79475L9.66037 8.92095C9.6196 8.69853 9.5677 8.47611 9.54546 8.26605C9.35146 6.47683 9.81236 5.31655 10.5105 4.86801C10.5204 4.86183 10.5402 4.87295 10.5488 4.86801C10.8058 4.71108 11.0937 4.60358 11.4755 4.59616V4.5974ZM19.8162 4.75185C19.8294 4.75212 19.8426 4.75212 19.8557 4.75185C20.7553 5.28813 21.5548 5.9492 22.2109 6.75979L19.7396 8.34266C19.1354 7.49747 18.5175 6.70295 17.8466 6.02581L19.8162 4.75185V4.75185ZM16.1092 7.14531C16.8162 7.84892 17.4623 8.61116 18.0406 9.42386L11.5139 13.6325C11.0141 12.7692 10.5884 11.8652 10.2411 10.9301L16.1105 7.14531H16.1092ZM7.57583 7.95714C7.58571 8.12395 7.5956 8.28953 7.61413 8.45881C7.66974 8.96914 7.79701 9.5017 7.92304 10.0417L6.53293 10.9301C6.69863 9.88439 7.05194 8.87722 7.57583 7.95714V7.95714ZM23.2538 8.42051C23.6986 9.32501 24.0261 10.3036 24.141 11.3552C24.1141 11.3793 24.0885 11.4049 24.0644 11.4318L22.0947 12.7058C21.7611 11.8173 21.3348 10.9017 20.8208 10.0034L23.2526 8.42051H23.2538ZM19.1218 11.0846C19.6469 12.0027 20.0769 12.9072 20.3957 13.7869L14.4881 17.5718C13.7811 16.8682 13.135 16.1059 12.5567 15.2932L19.1218 11.0846ZM8.50257 12.0113C8.84113 12.9047 9.29585 13.8117 9.81606 14.7137L7.34476 16.2966C6.87456 15.366 6.57333 14.3594 6.45509 13.3236L8.50257 12.0126V12.0113ZM24.0644 13.7869C23.8987 14.8327 23.5454 15.8399 23.0215 16.7599C23.0116 16.5808 23.0029 16.4016 22.9832 16.22C22.9288 15.7232 22.8349 15.1993 22.7126 14.6754L24.0644 13.7869V13.7869ZM20.9357 15.7949C20.9752 16.0111 21.0296 16.2471 21.0519 16.451C21.2459 18.2402 20.785 19.3622 20.0868 19.812C19.3887 20.2605 18.1963 20.2272 16.6505 19.3091C16.4663 19.2003 16.2575 19.0533 16.0709 18.9223L20.9369 15.7961L20.9357 15.7949ZM10.8577 16.3744C11.4383 17.1973 12.0842 17.972 12.789 18.6913L10.7428 20.0048C9.84528 19.4793 9.04757 18.7996 8.38641 17.9968L10.8577 16.3744ZM14.3336 20.0431C14.7649 20.3755 15.2109 20.6732 15.6459 20.9303C15.8164 21.0316 15.9758 21.1119 16.1475 21.2021C15.8732 21.2268 15.5804 21.2392 15.2987 21.2392C14.5035 21.2398 13.7116 21.1359 12.9435 20.9303L14.3336 20.0431Z" fill="#D71C23"/>
</svg>
