<?xml version="1.0" encoding="iso-8859-1" ?>
<svg width="36" height="37" viewBox="0 0 36 37" fill="none" xmlns="http://www.w3.org/2000/svg">
<path d="M34.3125 4.57164C34.4617 4.57164 34.6048 4.51143 34.7102 4.40427C34.8157 4.29711 34.875 4.15176 34.875 4.00021V1.7145C34.875 1.56294 34.8157 1.4176 34.7102 1.31043C34.6048 1.20327 34.4617 1.14307 34.3125 1.14307H23.0625C22.9133 1.14307 22.7702 1.20327 22.6648 1.31043C22.5593 1.4176 22.5 1.56294 22.5 1.7145V4.00021C22.5 4.15176 22.5593 4.29711 22.6648 4.40427C22.7702 4.51143 22.9133 4.57164 23.0625 4.57164H23.625V8.73135L18.3056 5.23471C18.2145 5.17487 18.1084 5.14304 18 5.14304C17.8916 5.14304 17.7855 5.17487 17.6944 5.23471L12.375 8.73135V4.57164H12.9375C13.0867 4.57164 13.2298 4.51143 13.3352 4.40427C13.4407 4.29711 13.5 4.15176 13.5 4.00021V1.7145C13.5 1.56294 13.4407 1.4176 13.3352 1.31043C13.2298 1.20327 13.0867 1.14307 12.9375 1.14307H1.6875C1.53832 1.14307 1.39524 1.20327 1.28975 1.31043C1.18426 1.4176 1.125 1.56294 1.125 1.7145V4.00021C1.125 4.15176 1.18426 4.29711 1.28975 4.40427C1.39524 4.51143 1.53832 4.57164 1.6875 4.57164H2.25V12.0002H3.375V4.57164H11.25V9.47085L8.13192 11.5204C8.05308 11.5723 7.98826 11.6433 7.94338 11.7271C7.8985 11.8109 7.87499 11.9048 7.875 12.0002V29.6454C7.54067 29.403 7.15559 29.2427 6.75 29.1769V28.0002C6.75047 27.4439 6.55037 26.9066 6.1875 26.4899V20.5716H5.0625V25.7868C4.87875 25.7387 4.68975 25.7144 4.5 25.7145H3.375V13.1431H2.25V26.0216C1.90818 26.2223 1.6243 26.5107 1.42685 26.858C1.22939 27.2053 1.12529 27.5992 1.125 28.0002V34.8574C1.125 35.0089 1.18426 35.1543 1.28975 35.2614C1.39524 35.3686 1.53832 35.4288 1.6875 35.4288H34.3125C34.4617 35.4288 34.6048 35.3686 34.7102 35.2614C34.8157 35.1543 34.875 35.0089 34.875 34.8574V28.0002C34.8747 27.5992 34.7706 27.2053 34.5732 26.858C34.3757 26.5107 34.0918 26.2223 33.75 26.0216V4.57164H34.3125ZM2.25 2.28592H12.375V3.42878H2.25V2.28592ZM23.625 2.28592H33.75V3.42878H23.625V2.28592ZM18 6.39514L27 12.3111V20.0002H25.875V14.5716C25.875 14.0412 25.6676 13.5325 25.2984 13.1574C24.9292 12.7824 24.4284 12.5716 23.9062 12.5716C23.3841 12.5716 22.8833 12.7824 22.5141 13.1574C22.1449 13.5325 21.9375 14.0412 21.9375 14.5716V20.0002H20.8125V12.5716C20.8125 11.8139 20.5162 11.0872 19.9887 10.5513C19.4613 10.0155 18.7459 9.7145 18 9.7145C17.2541 9.7145 16.5387 10.0155 16.0113 10.5513C15.4838 11.0872 15.1875 11.8139 15.1875 12.5716V20.0002H14.0625V14.5716C14.0625 14.0412 13.8551 13.5325 13.4859 13.1574C13.1167 12.7824 12.6159 12.5716 12.0938 12.5716C11.5716 12.5716 11.0708 12.7824 10.7016 13.1574C10.3324 13.5325 10.125 14.0412 10.125 14.5716V20.0002H9V12.3111L18 6.39514ZM33.75 28.0002V32.0002H32.625V31.8574C32.6242 31.212 32.3974 30.5879 31.9852 30.0969C31.5729 29.6058 31.0022 29.2797 30.375 29.1769V28.0002C30.3754 27.6972 30.494 27.4067 30.7049 27.1925C30.9158 26.9782 31.2017 26.8577 31.5 26.8574H32.625C32.9233 26.8577 33.2092 26.9782 33.4201 27.1925C33.631 27.4067 33.7496 27.6972 33.75 28.0002ZM29.6719 30.2859H29.9531C30.3632 30.2864 30.7564 30.4521 31.0464 30.7467C31.3364 31.0413 31.4995 31.4407 31.5 31.8574V32.0002H28.125V31.8574C28.1255 31.4407 28.2886 31.0413 28.5786 30.7467C28.8686 30.4521 29.2618 30.2864 29.6719 30.2859ZM27 32.0002H25.875V26.8574C25.875 26.2511 25.6379 25.6698 25.216 25.2411C24.794 24.8125 24.2217 24.5716 23.625 24.5716C23.0283 24.5716 22.456 24.8125 22.034 25.2411C21.6121 25.6698 21.375 26.2511 21.375 26.8574V32.0002H20.25V26.8574C20.25 26.2511 20.0129 25.6698 19.591 25.2411C19.169 24.8125 18.5967 24.5716 18 24.5716C17.4033 24.5716 16.831 24.8125 16.409 25.2411C15.9871 25.6698 15.75 26.2511 15.75 26.8574V32.0002H14.625V26.8574C14.625 26.2511 14.3879 25.6698 13.966 25.2411C13.544 24.8125 12.9717 24.5716 12.375 24.5716C11.7783 24.5716 11.206 24.8125 10.784 25.2411C10.3621 25.6698 10.125 26.2511 10.125 26.8574V32.0002H9V23.4288H20.8125V22.2859H9V21.1431H27V22.2859H21.9375V23.4288H27V32.0002ZM24.75 32.0002H22.5V26.8574C22.5 26.5542 22.6185 26.2636 22.8295 26.0492C23.0405 25.8349 23.3266 25.7145 23.625 25.7145C23.9234 25.7145 24.2095 25.8349 24.4205 26.0492C24.6315 26.2636 24.75 26.5542 24.75 26.8574V32.0002ZM19.125 32.0002H16.875V26.8574C16.875 26.5542 16.9935 26.2636 17.2045 26.0492C17.4155 25.8349 17.7016 25.7145 18 25.7145C18.2984 25.7145 18.5845 25.8349 18.7955 26.0492C19.0065 26.2636 19.125 26.5542 19.125 26.8574V32.0002ZM13.5 32.0002H11.25V26.8574C11.25 26.5542 11.3685 26.2636 11.5795 26.0492C11.7905 25.8349 12.0766 25.7145 12.375 25.7145C12.6734 25.7145 12.9595 25.8349 13.1705 26.0492C13.3815 26.2636 13.5 26.5542 13.5 26.8574V32.0002ZM12.9375 20.0002H11.25V14.5716C11.25 14.3443 11.3389 14.1263 11.4971 13.9655C11.6554 13.8048 11.87 13.7145 12.0938 13.7145C12.3175 13.7145 12.5321 13.8048 12.6904 13.9655C12.8486 14.1263 12.9375 14.3443 12.9375 14.5716V20.0002ZM19.6875 20.0002H16.3125V12.5716C16.3125 12.117 16.4903 11.6809 16.8068 11.3595C17.1232 11.038 17.5524 10.8574 18 10.8574C18.4476 10.8574 18.8768 11.038 19.1932 11.3595C19.5097 11.6809 19.6875 12.117 19.6875 12.5716V20.0002ZM24.75 20.0002H23.0625V14.5716C23.0625 14.3443 23.1514 14.1263 23.3096 13.9655C23.4679 13.8048 23.6825 13.7145 23.9062 13.7145C24.13 13.7145 24.3446 13.8048 24.5029 13.9655C24.6611 14.1263 24.75 14.3443 24.75 14.5716V20.0002ZM7.875 31.8574V32.0002H4.5V31.8574C4.50047 31.4407 4.66359 31.0413 4.95358 30.7467C5.24358 30.4521 5.63676 30.2864 6.04688 30.2859H6.32812C6.73824 30.2864 7.13142 30.4521 7.42142 30.7467C7.71141 31.0413 7.87453 31.4407 7.875 31.8574ZM3.375 26.8574H4.5C4.79826 26.8577 5.0842 26.9782 5.2951 27.1925C5.50601 27.4067 5.62465 27.6972 5.625 28.0002V29.1769C4.99781 29.2797 4.42706 29.6058 4.01485 30.0969C3.60263 30.5879 3.37582 31.212 3.375 31.8574V32.0002H2.25V28.0002C2.25035 27.6972 2.36899 27.4067 2.5799 27.1925C2.7908 26.9782 3.07674 26.8577 3.375 26.8574ZM33.75 34.2859H2.25V33.1431H33.75V34.2859ZM32.625 25.7145H31.5C31.3102 25.7144 31.1212 25.7387 30.9375 25.7868V20.5716H29.8125V26.4899C29.4496 26.9066 29.2495 27.4439 29.25 28.0002V29.1769C28.8444 29.2427 28.4593 29.403 28.125 29.6454V12.0002C28.125 11.9048 28.1015 11.8109 28.0566 11.7271C28.0117 11.6433 27.9469 11.5723 27.8681 11.5204L24.75 9.47085V4.57164H32.625V25.7145Z" fill="#D71C23"/>
<path d="M30.9375 5.71436H29.8125V12.0001H30.9375V5.71436Z" fill="#D71C23"/>
<path d="M30.9375 13.1431H29.8125V19.4288H30.9375V13.1431Z" fill="#D71C23"/>
<path d="M27.5625 5.71436H26.4375V9.14293H27.5625V5.71436Z" fill="#D71C23"/>
<path d="M6.1875 5.71436H5.0625V12.0001H6.1875V5.71436Z" fill="#D71C23"/>
<path d="M6.1875 13.1431H5.0625V19.4288H6.1875V13.1431Z" fill="#D71C23"/>
<path d="M9.5625 5.71436H8.4375V9.14293H9.5625V5.71436Z" fill="#D71C23"/>
</svg>
