<?xml version="1.0" encoding="iso-8859-1" ?>
<svg width="54" height="50" viewBox="0 0 54 50" fill="none" xmlns="http://www.w3.org/2000/svg">
<path d="M50.2794 9.23333C50.2461 9.13333 50.1794 9.06667 50.1127 8.96667L50.0461 8.9C49.6794 8.53333 49.1461 8.36667 48.6461 8.5C48.1461 8.63333 47.7461 9.03333 47.6127 9.53333C47.4794 9.96667 47.2461 10.4 46.9127 10.7C46.2461 11.3333 45.2794 11.5333 44.4127 11.2333C43.4794 10.9 42.8461 10.0667 42.6794 8.93333C42.6794 8.86667 42.6794 8.8 42.6794 8.76667C42.9461 7.53333 43.7127 6.73333 44.7794 6.53333C45.3127 6.43333 45.7127 6.06667 45.8794 5.56667C46.0461 5.06667 45.9127 4.53333 45.5794 4.16667L42.1127 0.433333C41.9127 0.233333 41.6794 0.0666668 41.3794 0.0333335C41.3127 0.0333335 41.2461 0 41.1461 0C40.8127 0 40.4794 0.133333 40.2127 0.366667L36.8794 3.4C36.6794 2.96667 36.4127 2.53333 36.0794 2.16667C34.5127 0.5 31.8794 0.366666 30.1461 1.9C28.4794 3.5 28.3794 6.1 29.9461 7.8C30.2794 8.16667 30.6794 8.46667 31.1127 8.7L27.8461 11.7667C27.7794 11.8333 27.7127 11.9 27.6794 11.9667C27.5127 12.1667 27.4127 12.4333 27.3794 12.7C27.3794 12.7667 27.3794 12.8333 27.3794 12.9333C27.4127 13.2333 27.5461 13.4667 27.7461 13.7L31.1794 17.4667C31.5127 17.8333 32.0461 18 32.5461 17.9C33.0461 17.7667 33.4461 17.3667 33.6127 16.8667C33.8794 15.8333 34.7794 15.1333 36.0127 14.9667C36.0794 14.9667 36.1461 14.9667 36.1794 14.9667C37.3127 15.2333 38.1127 15.9333 38.3461 16.9C38.5794 17.8 38.3127 18.7333 37.6127 19.3333C37.2794 19.6333 36.8461 19.8667 36.3794 19.9333C35.8461 20.0333 35.4127 20.4 35.2461 20.9C35.0794 21.4 35.1794 21.9333 35.5461 22.3333L35.6127 22.4C35.6794 22.4667 35.7461 22.5333 35.8461 22.6L39.1461 26.1333C39.3794 26.3667 39.6794 26.5333 40.0127 26.5667C40.0461 26.5667 40.0794 26.5667 40.1127 26.5667C40.1461 26.5667 40.1794 26.5667 40.2461 26.5667C40.4127 26.5333 40.5461 26.5 40.7127 26.4C40.7794 26.3667 40.8794 26.3 41.0127 26.2L44.6127 22.9333C44.6461 22.9 44.7127 22.8333 44.7461 22.8C45.0127 22.4333 45.0794 21.9667 44.9461 21.5333C44.8127 21.1 44.5127 20.7667 44.1127 20.6333C43.7461 20.5 43.4461 20.2667 43.1794 20C42.7127 19.5 42.5127 18.8667 42.5461 18.1667C42.5794 17.5 42.9127 16.8667 43.4127 16.4333C43.4461 16.4 43.4461 16.4 43.4794 16.3667C43.9461 15.8667 44.5794 15.6333 45.2794 15.6333C45.9461 15.6333 46.5794 15.9333 47.0461 16.4C47.3127 16.6667 47.5127 17 47.6127 17.4C47.7461 17.8333 48.0461 18.1667 48.4461 18.3333C48.8794 18.5 49.3461 18.4667 49.7127 18.2333C49.7794 18.2 49.8127 18.1667 49.8461 18.1333L53.4127 14.8C53.6127 14.6 53.7794 14.3667 53.8127 14.0667C53.8461 14 53.8461 13.9 53.8461 13.8333C53.8461 13.5 53.7127 13.1667 53.4794 12.9333L50.2794 9.23333ZM49.1461 16.2333C48.9461 15.8 48.7127 15.4333 48.3794 15.0667C47.5794 14.2 46.5127 13.7333 45.3461 13.7333C44.1794 13.7333 43.1127 14.1667 42.3127 14.9667C41.4461 15.7 40.9127 16.7667 40.8461 17.9C40.7794 19.0667 41.1461 20.1667 41.9461 21.0333C42.2461 21.3667 42.6461 21.6667 43.0461 21.9L40.2461 24.4667L37.4127 21.4333C37.9794 21.2333 38.4794 20.9333 38.9127 20.5667C40.0794 19.5 40.5461 17.9 40.1461 16.3667C39.7461 14.7667 38.4461 13.5667 36.6794 13.1667C36.4127 13.1 36.1461 13.1 35.8461 13.1333C34.1127 13.3667 32.7794 14.3333 32.1794 15.7667L29.4461 12.7667L32.7127 9.73333C32.8461 9.6 32.9461 9.46667 33.0461 9.26667C33.2461 8.9 33.2794 8.5 33.1461 8.1C33.0127 7.7 32.7127 7.36667 32.3127 7.23333C31.9461 7.1 31.6461 6.86667 31.3794 6.6C30.4794 5.6 30.5127 4.1 31.4794 3.2C32.4794 2.33333 34.0127 2.4 34.9127 3.36667C35.1794 3.63333 35.3794 3.96667 35.4794 4.36667C35.6127 4.76667 35.8794 5.1 36.2794 5.26667C36.6461 5.43333 37.0794 5.43333 37.4461 5.26667C37.6127 5.2 37.7794 5.1 37.9127 4.96667L41.2127 1.96667L43.9794 4.93333C42.5127 5.43333 41.4461 6.66667 41.0461 8.36667C40.9794 8.63333 40.9794 8.9 41.0127 9.2C41.2794 11 42.3794 12.4 43.9127 12.9333C45.4127 13.4667 47.0461 13.1 48.1794 12.0333C48.6127 11.6333 48.9461 11.1667 49.1794 10.6333L51.9794 13.7L49.1461 16.2333Z" fill="#D71C23"/>
<path d="M5.57949 48.5325C5.57949 49.3325 6.21282 49.9659 7.01282 49.9659L23.5128 49.8659C23.5462 49.8659 23.6128 49.8659 23.6462 49.8659C23.8128 49.9325 24.0128 49.9659 24.2128 49.9659L29.3462 49.9325C29.4128 49.9325 29.4795 49.9325 29.5128 49.8992C29.9462 49.7992 30.3128 49.4992 30.5128 49.0992C30.7128 48.6992 30.7128 48.2325 30.4795 47.8325C30.2128 47.3325 29.9128 46.2992 30.8128 44.9992C30.8462 44.9659 30.8795 44.8992 30.9462 44.8659C31.5128 44.4659 32.1128 44.2659 32.6795 44.2659C34.0128 44.2659 35.1128 45.3659 35.1462 46.6992C35.1462 47.0992 35.0462 47.4659 34.8795 47.7992C34.6795 48.1992 34.6795 48.6325 34.8795 49.0325C35.0795 49.4325 35.4462 49.7325 35.8795 49.7992C35.9462 49.7992 35.9795 49.8325 36.0462 49.7992L40.9128 49.7659C41.3128 49.7659 41.6462 49.5992 41.9128 49.3325C42.1795 49.0659 42.3128 48.6992 42.3128 48.3325L42.2795 43.2659C42.2795 42.4659 41.6462 41.8325 40.8462 41.8325C40.5795 41.8325 40.2795 41.8992 40.0462 42.0659C39.6462 42.2992 39.2128 42.4659 38.7128 42.4659C37.8128 42.4659 36.9795 41.9659 36.5462 41.1659C36.0795 40.2992 36.1795 39.2325 36.8462 38.2992C36.8795 38.2659 36.9128 38.1992 36.9795 38.1659C37.5462 37.7659 38.1462 37.5659 38.7462 37.5659C39.2128 37.5659 39.6462 37.6992 40.0462 37.9325C40.6128 38.2992 41.3795 38.1992 41.8462 37.7325C42.1128 37.4659 42.2462 37.0992 42.2462 36.7325L42.2128 31.6325C42.2128 30.8325 41.5795 30.1992 40.7795 30.1992L36.4128 30.2325C36.5795 29.7992 36.6462 29.3325 36.6462 28.8325C36.6462 26.4992 34.7462 24.6325 32.4128 24.6325C31.4795 24.6325 30.5462 24.9325 29.6795 25.5325C29.8128 25.3659 29.9462 25.1659 30.0462 24.9659C30.8128 23.4992 30.6462 21.7659 29.6128 20.2659C29.4462 20.0325 29.2462 19.8325 29.0128 19.6992C27.7128 18.7992 26.1795 18.5659 24.8795 19.0659L24.8462 14.6992C24.8462 13.8992 24.2128 13.2659 23.4128 13.2659L19.0462 13.2992C19.5128 11.9326 19.2795 10.4659 18.3462 9.13255C18.1795 8.89922 17.9795 8.69922 17.7795 8.56588C16.9128 7.99922 15.9795 7.69922 15.0795 7.69922C13.9462 7.69922 12.8795 8.13255 12.0795 8.93255C11.2795 9.73255 10.8462 10.7992 10.8462 11.9326C10.8462 12.4326 10.9462 12.8992 11.1128 13.3659L6.74615 13.3992C6.37949 13.3992 6.01282 13.5659 5.74616 13.8325C5.47949 14.0992 5.34615 14.4659 5.34615 14.8325L5.37949 19.9659C5.37949 20.0325 5.37949 20.0992 5.41282 20.1325C5.54615 20.7992 6.14616 21.2659 6.81282 21.2659C7.04616 21.2659 7.24616 21.1992 7.44616 21.0992C8.31282 20.6659 9.34616 20.7659 10.2795 21.4325C10.3128 21.4659 10.3795 21.4992 10.4128 21.5659C11.0795 22.5325 11.1795 23.5659 10.7462 24.4325C10.3128 25.2325 9.47949 25.7659 8.57949 25.7659C8.21282 25.7659 7.84616 25.6659 7.47949 25.4992C7.27949 25.3992 7.07949 25.3659 6.84615 25.3659C6.17949 25.3659 5.57949 25.8659 5.44616 26.5325C5.44616 26.5992 5.44616 26.6325 5.44616 26.6992L5.47949 31.5659C5.47949 31.6992 5.51282 31.8325 5.57949 31.9325C5.57949 31.9659 5.57949 31.9659 5.57949 31.9992L5.61282 36.1659C4.24616 35.6659 2.77949 35.9325 1.44616 36.8659C1.21282 37.0325 1.01282 37.2325 0.879489 37.4325C-0.120511 38.9325 -0.287178 40.6992 0.479489 42.1325C1.21282 43.5325 2.67949 44.3659 4.24615 44.3659C4.74615 44.3659 5.21282 44.2659 5.67949 44.0992L5.57949 48.5325ZM30.2128 31.4325C30.4795 30.9992 30.4795 30.4992 30.2795 30.0325C30.0128 29.5325 29.7128 28.4992 30.6128 27.1992C30.6462 27.1659 30.6795 27.0992 30.7462 27.0659C31.3128 26.6659 31.9128 26.4659 32.4795 26.4659C33.8128 26.4659 34.9128 27.5659 34.9462 28.8992C34.9462 29.2992 34.8462 29.6659 34.6795 29.9992C34.4462 30.4325 34.4795 30.9659 34.7462 31.3659C35.0128 31.7992 35.4795 32.0659 35.9795 32.0659L40.5128 32.0325L40.5462 36.1992C39.1462 35.5659 37.4795 35.7659 36.0462 36.7325C35.8128 36.8992 35.6128 37.0992 35.4795 37.3325C34.4795 38.8325 34.3128 40.5992 35.0795 42.0325C35.8128 43.4325 37.2462 44.2992 38.8462 44.2992C39.4462 44.2992 40.0462 44.1659 40.5795 43.8992L40.6128 48.0659L36.7128 48.0992C36.8462 47.6659 36.9462 47.1992 36.9462 46.7325C36.9462 44.3992 35.0462 42.5325 32.7128 42.5325C31.7795 42.5325 30.8128 42.8325 29.9462 43.4325C29.7128 43.5992 29.5128 43.7992 29.3795 44.0325C28.4795 45.3659 28.2462 46.8325 28.7128 48.1659L24.5795 48.1992L24.5462 43.6325C24.5462 42.8325 23.9128 42.1992 23.1128 42.1992C22.8795 42.1992 22.6462 42.2659 22.4462 42.3659C22.1128 42.5659 21.7128 42.6325 21.3128 42.6325C20.4128 42.6325 19.5795 42.1325 19.1462 41.3325C18.6795 40.4659 18.7795 39.3992 19.4462 38.4659C19.4795 38.4325 19.5128 38.3659 19.5795 38.3325C20.5462 37.6659 21.5795 37.5659 22.4462 37.9992C22.9795 38.2659 23.6795 38.1659 24.1128 37.7325C24.3795 37.4659 24.5462 37.0992 24.5128 36.6992L24.4795 32.1325L29.0128 32.0992C29.5128 32.1325 29.9795 31.8659 30.2128 31.4325ZM28.4795 30.3659H24.9795L24.9462 27.0992C25.3795 27.2659 25.8462 27.3325 26.3462 27.3325C27.3462 27.3325 28.2795 26.9659 29.0462 26.3325C28.2128 27.6325 28.0128 29.0659 28.4795 30.3659ZM8.54615 27.5659C10.1128 27.5659 11.5462 26.6659 12.2795 25.2992C13.0462 23.8325 12.8795 22.0992 11.8462 20.5992C11.6795 20.3659 11.4795 20.1659 11.2462 20.0325C9.94615 19.1325 8.41282 18.8992 7.11282 19.3659L7.07949 15.2326L11.6462 15.1659C12.1462 15.1659 12.6128 14.8992 12.8795 14.4659C13.1462 14.0325 13.1462 13.5326 12.9128 13.0992C12.7128 12.7659 12.6462 12.3659 12.6462 11.9659C12.6462 11.2992 12.8795 10.6992 13.3462 10.2326C13.8128 9.76588 14.4128 9.49922 15.0795 9.49922C15.6462 9.49922 16.2462 9.69922 16.8128 10.0659C16.8462 10.0992 16.9128 10.1326 16.9462 10.1992C17.6128 11.1326 17.7462 12.1992 17.2795 13.0659C17.0462 13.4992 17.0795 14.0325 17.3462 14.4659C17.6128 14.8992 18.0795 15.1659 18.5795 15.1659L23.1462 15.1325V19.6325C23.1462 20.4325 23.7795 21.0659 24.5795 21.0659C24.8128 21.0659 25.0128 20.9992 25.2128 20.8992C26.0795 20.4659 27.1128 20.5659 28.0462 21.2325C28.0795 21.2659 28.1462 21.2992 28.1795 21.3659C28.8462 22.2992 28.9462 23.3659 28.5128 24.2325C28.0795 25.0325 27.2462 25.5659 26.3462 25.5659C25.9795 25.5659 25.6128 25.4659 25.2795 25.2992C24.7462 25.0325 24.0462 25.1325 23.6462 25.5659C23.3795 25.8325 23.2128 26.1992 23.2128 26.5992L23.2462 30.7325C23.1462 30.7992 23.0795 30.8992 23.0128 30.9992C22.9795 31.0325 22.9462 31.0992 22.9128 31.1325L18.5462 31.1659C18.3462 31.1659 18.1795 31.0659 18.0795 30.8992C17.9795 30.7325 17.9795 30.4992 18.1128 30.3325C18.8795 29.1325 18.7795 27.6325 17.8462 26.2992C17.7462 26.1659 17.6462 26.0659 17.5128 25.9659C16.8128 25.4659 16.0462 25.2325 15.2795 25.2325C14.3795 25.2325 13.5462 25.5659 12.9128 26.2325C12.2795 26.8659 11.9462 27.6992 11.9462 28.5992C11.9462 29.2325 12.1462 29.8325 12.4795 30.3659C12.5795 30.5325 12.6128 30.7659 12.5128 30.9325C12.4128 31.0992 12.2462 31.1992 12.0462 31.1992L7.24615 31.2325L7.21282 27.3325C7.61282 27.4992 8.04615 27.5659 8.54615 27.5659ZM4.14615 42.6325C3.24616 42.6325 2.41282 42.1325 1.97949 41.3325C1.51282 40.4659 1.61282 39.3992 2.27949 38.4659C2.31282 38.4325 2.34616 38.3659 2.41282 38.3325C3.34615 37.6659 4.41282 37.5325 5.27949 37.9992C5.71282 38.2325 6.24615 38.1992 6.67949 37.9325C7.11282 37.6659 7.37949 37.1992 7.34615 36.6992L7.31282 32.9992L12.0462 32.9659C12.8795 32.9659 13.6462 32.4992 14.0795 31.7659C14.4795 31.0325 14.4462 30.0992 13.9795 29.3992C13.8128 29.1659 13.7462 28.8659 13.7462 28.5659C13.7462 28.1325 13.9128 27.7659 14.2128 27.4659C14.7795 26.8992 15.6795 26.8659 16.4795 27.3992C16.7795 27.8325 17.1128 28.6325 16.6462 29.3992C16.1795 30.1325 16.1462 31.0325 16.5795 31.7659C16.9795 32.4992 17.7462 32.9659 18.6128 32.9659L22.7795 32.9325L22.8128 36.2325C21.4795 35.7659 19.9462 35.9992 18.6462 36.9325C18.4128 37.0992 18.2128 37.2992 18.0795 37.4992C17.0795 38.9992 16.9128 40.7659 17.6795 42.1992C18.4128 43.5992 19.8462 44.4325 21.4462 44.4325C21.9462 44.4325 22.4128 44.3325 22.8795 44.1659L22.9128 47.9659C22.8795 47.9992 22.8462 48.0325 22.8128 48.0992L7.47949 48.1992L7.34615 43.6325C7.34615 43.1325 7.07949 42.6659 6.64616 42.3992C6.21282 42.1325 5.71282 42.1325 5.27949 42.3659C4.91282 42.5325 4.51282 42.6325 4.14615 42.6325Z" fill="#D71C23"/>
</svg>
