<?xml version="1.0" encoding="iso-8859-1" ?>
<svg width="28" height="28" viewBox="0 0 28 28" fill="none" xmlns="http://www.w3.org/2000/svg">
<path d="M16.4624 3.08289C16.4624 2.2085 15.7539 1.5 14.8795 1.5H13.0571C12.1815 1.5 11.473 2.2085 11.473 3.08289C11.473 3.80386 10.979 4.42255 10.3067 4.68699C10.2007 4.7294 10.0946 4.77431 9.99112 4.81921C9.32877 5.1061 8.54169 5.01879 8.03028 4.50862C7.73346 4.21201 7.33102 4.0454 6.9114 4.0454C6.49179 4.0454 6.08934 4.21201 5.79252 4.50862L4.50276 5.79838C4.20615 6.0952 4.03954 6.49765 4.03954 6.91726C4.03954 7.33688 4.20615 7.73932 4.50276 8.03614C5.01417 8.54755 5.10149 9.33339 4.8121 9.99698C4.76664 10.1014 4.72297 10.2066 4.68113 10.3126C4.41669 10.9849 3.798 11.4788 3.07703 11.4788C2.20264 11.4788 1.49414 12.1873 1.49414 13.0617V14.8854C1.49414 15.7598 2.20264 16.4683 3.07703 16.4683C3.798 16.4683 4.41669 16.9622 4.68113 17.6345C4.72354 17.7406 4.76845 17.8466 4.8121 17.9501C5.10024 18.6125 5.01293 19.3995 4.50276 19.911C4.20615 20.2078 4.03954 20.6102 4.03954 21.0298C4.03954 21.4494 4.20615 21.8519 4.50276 22.1487L5.79252 23.4385C6.08934 23.7351 6.49179 23.9017 6.9114 23.9017C7.33102 23.9017 7.73346 23.7351 8.03028 23.4385C8.54169 22.9271 9.32753 22.8397 9.99112 23.1279C10.0946 23.174 10.2007 23.2177 10.3067 23.2601C10.979 23.5245 11.473 24.1432 11.473 24.8642C11.473 25.7386 12.1815 26.4471 13.0559 26.4471H14.8795C15.7539 26.4471 16.4624 25.7386 16.4624 24.8642C16.4624 24.1432 16.9563 23.5245 17.6287 23.2589C17.7347 23.2177 17.8407 23.174 17.9443 23.1291C18.6066 22.8397 19.3937 22.9283 19.9038 23.4385C20.0508 23.5855 20.2254 23.7022 20.4174 23.7818C20.6095 23.8614 20.8154 23.9023 21.0233 23.9023C21.2313 23.9023 21.4372 23.8614 21.6292 23.7818C21.8213 23.7022 21.9959 23.5855 22.1428 23.4385L23.4326 22.1487C23.7292 21.8519 23.8958 21.4494 23.8958 21.0298C23.8958 20.6102 23.7292 20.2078 23.4326 19.911C22.9212 19.3995 22.8339 18.6137 23.122 17.9501C23.1682 17.8466 23.2118 17.7406 23.2542 17.6345C23.5187 16.9622 24.1374 16.4683 24.8583 16.4683C25.7327 16.4683 26.4412 15.7598 26.4412 14.8854V13.063C26.4412 12.1886 25.7327 11.4801 24.8583 11.4801C24.1374 11.4801 23.5187 10.9861 23.253 10.3138C23.2112 10.2079 23.1675 10.1026 23.122 9.99823C22.8351 9.33588 22.9224 8.5488 23.4326 8.03739C23.7292 7.74057 23.8958 7.33812 23.8958 6.91851C23.8958 6.49889 23.7292 6.09645 23.4326 5.79963L22.1428 4.50987C21.846 4.21326 21.4436 4.04664 21.024 4.04664C20.6044 4.04664 20.2019 4.21326 19.9051 4.50987C19.3937 5.02128 18.6078 5.1086 17.9443 4.82046C17.8398 4.77456 17.7346 4.73048 17.6287 4.68824C16.9563 4.42255 16.4624 3.80386 16.4624 3.08414V3.08289Z" stroke="#D71C23" stroke-width="2"/>
<path d="M18.9574 13.9738C18.9574 15.2971 18.4317 16.5661 17.496 17.5018C16.5603 18.4375 15.2912 18.9632 13.9679 18.9632C12.6447 18.9632 11.3756 18.4375 10.4399 17.5018C9.50419 16.5661 8.97852 15.2971 8.97852 13.9738C8.97852 12.6505 9.50419 11.3814 10.4399 10.4457C11.3756 9.51004 12.6447 8.98438 13.9679 8.98438C15.2912 8.98438 16.5603 9.51004 17.496 10.4457C18.4317 11.3814 18.9574 12.6505 18.9574 13.9738Z" stroke="#D71C23" stroke-width="2"/>
</svg>
