<?xml version="1.0" encoding="iso-8859-1" ?>
<svg width="38" height="36" viewBox="0 0 38 36" fill="none" xmlns="http://www.w3.org/2000/svg">
<path d="M28.4725 5.65044C27.7069 5.07363 26.7537 4.83979 25.8787 4.9801C24.66 5.18276 23.6756 6.04017 23.285 7.20938C23.2381 7.36527 23.3162 7.53675 23.4725 7.58352C23.6287 7.63029 23.8006 7.55234 23.8475 7.39645C24.16 6.4455 24.9881 5.74398 25.9725 5.57249C26.6756 5.44778 27.4725 5.66603 28.1131 6.13371C28.7069 6.57021 29.0819 7.1782 29.16 7.81736C29.3006 8.97097 28.4256 9.92192 27.6287 10.7637L27.41 10.9976C26.1756 12.3383 25.6756 13.9128 26.0506 15.3002C26.0819 15.4406 26.2069 15.5185 26.3475 15.5185C26.3787 15.5185 26.3944 15.5185 26.4256 15.5029C26.5819 15.4561 26.6756 15.3003 26.6444 15.1288C26.2069 13.5075 27.2225 12.0888 27.8631 11.3873L28.0819 11.1535C28.91 10.2649 29.9412 9.14246 29.7694 7.70823C29.66 6.92877 29.2069 6.18048 28.4725 5.65044Z" fill="#D71C23"/>
<path d="M26.6801 17.647C26.9524 17.6008 27.1355 17.3431 27.0892 17.0715C27.0429 16.7999 26.7847 16.6172 26.5124 16.6634C26.2402 16.7096 26.0571 16.9672 26.1034 17.2388C26.1497 17.5104 26.4079 17.6932 26.6801 17.647Z" fill="#D71C23"/>
<path d="M0.0823336 21.1929C0.269834 21.832 0.801084 22.4088 1.48858 22.7362C1.70733 22.8453 1.92608 22.9077 2.14483 22.9545C2.17608 22.9545 2.19171 22.97 2.22296 22.97C2.20733 23.0168 2.19171 23.0636 2.19171 23.1103C2.08233 23.6248 1.98858 24.0769 2.06671 24.5446L2.11358 24.8408C2.22296 25.4799 2.34796 26.1503 2.62921 26.8206C2.80108 27.2259 2.76983 27.4286 2.70733 27.7716C2.66046 28.0054 2.62921 28.286 2.62921 28.6757C2.66046 29.4864 2.98858 30.2659 3.59796 30.905C4.16046 31.4818 4.92608 31.856 5.84796 31.9963C6.53546 32.1054 7.20733 32.1678 7.89483 32.2301L8.66046 32.3081C9.12921 32.3548 9.61358 32.386 10.0823 32.4328C10.1761 32.4328 10.2386 32.4484 10.2698 32.6199C10.2855 32.7446 10.3323 32.9316 10.3636 33.1343L10.5198 33.9294C10.5511 34.132 10.598 34.3347 10.6292 34.5062C10.7698 35.3324 11.473 35.9248 12.3011 35.9248H12.3792L24.2542 33.602L25.5511 33.2902L25.598 31.9963C25.6448 30.4218 25.8636 27.3818 26.7542 24.7628C26.8948 24.3731 26.6761 23.9366 26.2855 23.8119C25.8948 23.6716 25.4573 23.8898 25.3323 24.2796C24.3792 27.0856 24.1448 30.2815 24.098 31.9495V32.0898L12.2698 34.4126C12.1917 34.397 12.1448 34.3347 12.1292 34.2411C12.098 34.0385 12.0511 33.8358 12.0198 33.6332L11.8636 32.8381C11.8323 32.6354 11.7855 32.4795 11.7698 32.3548C11.6292 31.513 11.0198 30.9674 10.2073 30.9206C9.75421 30.8894 9.26983 30.8427 8.81671 30.7959L8.05108 30.718C7.36358 30.6556 6.73858 30.5932 6.09796 30.4997C5.50421 30.4062 5.01983 30.1879 4.69171 29.8449C4.34796 29.4864 4.14483 29.0499 4.14483 28.629C4.14483 28.3951 4.17608 28.2081 4.20733 28.0054C4.26983 27.5689 4.36358 27.0389 4.03546 26.2282C3.81671 25.6982 3.72296 25.1837 3.61358 24.5602L3.56671 24.2796C3.53546 24.0769 3.59796 23.7495 3.67608 23.4221C3.70733 23.313 3.72296 23.2195 3.75421 23.1103L3.78546 22.9856C3.84796 22.8141 3.94171 22.4868 3.78546 22.1282C3.61358 21.7229 3.22296 21.4891 2.67608 21.4735H2.62921L2.50421 21.4579C2.37921 21.4267 2.26983 21.3955 2.16046 21.3488C1.86358 21.2084 1.61358 20.959 1.55108 20.7408C1.51983 20.6161 1.53546 20.5069 1.59796 20.3822C1.86358 19.9301 2.20733 19.5248 2.59796 19.0259C3.20733 18.2776 3.97296 17.3579 4.34796 16.1887C4.66046 15.2377 4.44171 14.4115 4.26983 13.7256C4.16046 13.3358 4.06671 12.9305 4.09796 12.5719C4.20733 11.6054 4.41046 10.748 4.69171 9.95293C6.37921 5.36966 10.4417 2.62594 15.5667 2.62594C16.0355 2.62594 16.5198 2.65712 17.0355 2.70388C17.4573 2.75065 17.8167 2.45445 17.8636 2.03354C17.9105 1.62822 17.6136 1.25407 17.1917 1.20731C16.6292 1.14495 16.098 1.11377 15.5667 1.11377C9.78546 1.11377 5.19171 4.21605 3.26983 9.42289C2.94171 10.3427 2.72296 11.3092 2.59796 12.3849C2.51983 13.024 2.67608 13.6164 2.80108 14.0841C2.94171 14.6609 3.08233 15.1598 2.91046 15.7054C2.61358 16.6096 1.98858 17.3735 1.42608 18.0594C0.988584 18.605 0.629209 19.0571 0.301084 19.5872C-0.0114163 20.1016 -0.0739164 20.6472 0.0823336 21.1929Z" fill="#D71C23"/>
<path d="M29.0039 0.271936C22.9102 -1.08434 16.8477 2.76623 15.4883 8.84608C15.1289 10.4674 15.1289 12.1978 15.5039 13.8191C15.7383 14.8324 16.0195 15.6119 16.3945 16.2822C16.4414 16.3757 16.5039 16.4693 16.5664 16.5784C16.6602 16.7343 16.8008 16.937 16.832 17.0617C16.7852 17.124 16.6914 17.202 16.5664 17.3111L14.9414 18.6986C14.832 18.7921 14.7539 18.9012 14.6914 18.9948L14.5352 19.4001C14.5195 19.4624 14.5195 19.5404 14.5195 19.6651V19.7119C14.5195 20.2575 14.9883 20.6472 15.457 20.7875C16.832 21.1929 18.1445 21.3487 19.3789 21.2396C19.8789 21.1929 20.2852 21.1149 20.7383 21.0058H20.7539C21.7852 21.6138 22.9102 22.0659 24.082 22.3309C24.9102 22.5179 25.7227 22.5959 26.5352 22.5959C31.7227 22.5959 36.4102 19.0103 37.582 13.7567C38.2383 10.8103 37.707 7.78601 36.082 5.24494C34.457 2.68829 31.9414 0.926689 29.0039 0.271936ZM36.1133 13.4294C34.9414 18.6986 29.6914 22.0347 24.4102 20.8655C23.3789 20.6316 22.3945 20.2419 21.4883 19.6963L21.1914 19.5248L20.8477 19.5092C20.8164 19.5092 20.8008 19.5092 20.7695 19.5092C20.6445 19.5092 20.4883 19.5248 20.3789 19.556C19.9883 19.6495 19.6289 19.7119 19.2227 19.743C18.332 19.821 17.3633 19.7275 16.3477 19.4624L17.5352 18.4335C17.7695 18.2309 17.9883 18.0438 18.1602 17.7476C18.582 16.9993 18.1445 16.2822 17.832 15.7833C17.7852 15.7054 17.7383 15.6275 17.6914 15.5495C17.3945 15.0195 17.1602 14.3647 16.957 13.4917C16.6289 12.0887 16.6289 10.5921 16.9414 9.17346C18.1133 3.90426 23.3789 0.568134 28.6602 1.73734C31.207 2.29855 33.3945 3.82631 34.8008 6.04C36.2227 8.25369 36.6758 10.8727 36.1133 13.4294Z" fill="#D71C23"/>
</svg>
