<?xml version="1.0" encoding="iso-8859-1" ?>
<svg width="27" height="24" viewBox="0 0 27 24" fill="none" xmlns="http://www.w3.org/2000/svg">
<path fill-rule="evenodd" clip-rule="evenodd" d="M14.1592 0.867063C14.1592 0.637104 14.0678 0.416563 13.9052 0.253957C13.7426 0.091351 13.5221 0 13.2921 0C13.0622 0 12.8416 0.091351 12.679 0.253957C12.5164 0.416563 12.4251 0.637104 12.4251 0.867063V2.89021H10.143C9.73682 2.89003 9.34003 3.01209 9.00422 3.2405L7.04465 4.57463C6.99655 4.6072 6.93974 4.62453 6.88164 4.62434H2.13939C1.90943 4.62434 1.68889 4.71569 1.52628 4.87829C1.36367 5.0409 1.27232 5.26144 1.27232 5.4914C1.27232 5.72136 1.36367 5.9419 1.52628 6.10451C1.68889 6.26711 1.90943 6.35847 2.13939 6.35847H3.96253L0.0699947 15.2372C-0.00353096 15.4105 -0.0196286 15.6027 0.024061 15.7858C0.0677506 15.9689 0.16893 16.1332 0.312772 16.2545C0.405259 16.3285 0.498902 16.3991 0.670003 16.51C0.885034 16.6499 1.19255 16.8314 1.58562 17.0106C2.37176 17.3702 3.50703 17.7274 4.91052 17.7274C6.05739 17.7296 7.19132 17.4851 8.23542 17.0106C8.62849 16.8314 8.93601 16.6499 9.15104 16.51C9.32445 16.3979 9.41694 16.3274 9.50942 16.2522C9.65442 16.1322 9.75642 15.9682 9.8 15.7851C9.84359 15.602 9.82641 15.4097 9.75105 15.2372L5.85735 6.35847H6.88164C7.28743 6.35847 7.68397 6.23592 8.01923 6.00817L9.97995 4.67405C10.0277 4.64169 10.0841 4.62438 10.1418 4.62434H12.4251V21.3876H7.23772C7.00776 21.3876 6.78722 21.4789 6.62461 21.6415C6.46201 21.8041 6.37066 22.0247 6.37066 22.2546C6.37066 22.4846 6.46201 22.7051 6.62461 22.8677C6.78722 23.0303 7.00776 23.1217 7.23772 23.1217H19.3465C19.5765 23.1217 19.7971 23.0303 19.9597 22.8677C20.1223 22.7051 20.2136 22.4846 20.2136 22.2546C20.2136 22.0247 20.1223 21.8041 19.9597 21.6415C19.7971 21.4789 19.5765 21.3876 19.3465 21.3876H14.1592V4.62434H16.4413C16.4991 4.62434 16.5569 4.64168 16.6032 4.67405L18.565 6.00817C18.9003 6.23592 19.2968 6.35847 19.7026 6.35847H20.7269L16.8332 15.2372C16.7554 15.4147 16.7393 15.6132 16.7875 15.801C16.8357 15.9888 16.9454 16.155 17.0991 16.273C17.113 16.2835 17.0991 16.273 17.1014 16.273C17.2161 16.3594 17.3358 16.4389 17.4598 16.5112C17.6737 16.6407 17.9801 16.8072 18.3731 16.9736C19.4185 17.4106 20.5407 17.6339 21.6737 17.6303C22.8072 17.6336 23.9299 17.41 24.9755 16.9725C25.3663 16.8072 25.6738 16.6407 25.8888 16.5112C26.0124 16.4382 26.1321 16.3587 26.2472 16.273C26.401 16.155 26.5107 15.9888 26.5589 15.801C26.6071 15.6132 26.591 15.4147 26.5131 15.2372L22.6217 6.35847H24.446C24.676 6.35846 24.8965 6.26711 25.0591 6.10451C25.2218 5.9419 25.3131 5.72136 25.3131 5.4914C25.3131 5.26144 25.2218 5.0409 25.0591 4.87829C24.8965 4.71569 24.676 4.62434 24.446 4.62434H19.7038C19.6461 4.6243 19.5897 4.60698 19.5419 4.57463L17.58 3.2405C17.2446 3.01231 16.8482 2.89026 16.4425 2.89021H14.1592V0.867063ZM1.95441 15.258C2.86437 15.7422 3.87976 15.9944 4.91052 15.9921C5.94128 15.9944 6.95667 15.7422 7.86663 15.258L4.91052 8.51803L1.95441 15.258ZM18.7292 15.2303C18.824 15.2765 18.9304 15.3262 19.0471 15.3759C19.6598 15.6337 20.5558 15.8962 21.6737 15.8962C22.6929 15.8991 23.6995 15.6714 24.6183 15.2303L21.6737 8.51687L18.7292 15.2303Z" fill="#D71C23"/>
</svg>
